<?xml version="1.0" encoding="utf-8"?><svg viewBox="0 0 155 64" xmlns="http://www.w3.org/2000/svg" xmlns:xlink="http://www.w3.org/1999/xlink"><style>:root>svg{display:none}:root>svg:target{display:block}</style><svg fill="none" viewBox="0 0 155 64" id="Logo" xmlns="http://www.w3.org/2000/svg"><path d="M0 10.665h9.142v42.672H0V10.665zM16.722 10.665h18.895c9.142 0 14.932 5.791 14.932 14.325 0 9.75-7.313 12.494-7.313 12.494l8.841 15.848h-10.06l-7.619-14.02h-8.534v14.02h-9.142V10.666zm18.583 20.116c3.352 0 5.79-2.439 5.79-5.79 0-3.352-2.438-5.791-5.79-5.791h-9.44v11.58h9.44zM59.648 10.665h9.142v34.133h19.808v8.534h-28.95V10.666zM96.182 10.665h9.142v42.672h-9.142V10.665zM154.275 63.998h-10.581L130.51 41.162l-7.025 12.168h-10.581l12.318-21.331-12.318-21.331h10.581l7.025 12.168 5.292 9.163 18.473 31.999zM154.275 0l-15.832 27.429-5.295-9.163L143.694 0h10.581zM59.648 56.666h.773v7.224h-.773v-7.224zM63.986 57.393h-2.273v-.727h5.313v.722h-2.269v6.502h-.775l.004-6.497zM76.423 62.502a3.82 3.82 0 01-2.983 1.496 3.716 3.716 0 112.932-5.933l-.516.459a2.982 2.982 0 10-2.425 4.746 3.098 3.098 0 002.476-1.236l.516.468zM80.965 56.567a3.717 3.717 0 11-3.716 3.716 3.697 3.697 0 013.716-3.716zm2.941 3.716a2.941 2.941 0 10-2.94 2.983 2.92 2.92 0 002.94-2.983zM86.384 56.666h.67l2.994 3.923 2.982-3.923h.672v7.224h-.766v-5.878l-2.888 3.82-2.89-3.82v5.883h-.774v-7.23zM95.88 56.666h2.734a2.27 2.27 0 110 4.542h-1.961v2.682h-.774v-7.224zm2.734 3.82a1.549 1.549 0 100-3.098h-1.961v3.097h1.961zM104.083 56.666h.723l2.994 7.224h-.826l-.826-2.012h-3.407l-.826 2.012h-.825l2.993-7.224zm1.755 4.49l-1.394-3.405-1.393 3.404h2.787zM109.089 56.666h.67l4.439 5.831v-5.831h.773v7.224h-.669l-4.44-5.825v5.83h-.773v-7.23zM118.945 61.366l-2.682-4.7h.876l2.168 3.87h.051l2.168-3.87h.876l-2.682 4.696v2.523h-.775v-2.519z" fill="#fff"/></svg><svg fill="none" viewBox="0 0 61 61" id="fb" xmlns="http://www.w3.org/2000/svg"><path d="M30.917.12c-16.5 0-30 13.524-30 30.18 0 15.061 10.98 27.561 25.32 29.82V39.036h-7.62V30.3h7.62v-6.657c0-7.56 4.47-11.717 11.34-11.717 3.27 0 6.69.573 6.69.573v7.44h-3.78c-3.72 0-4.89 2.319-4.89 4.698v5.663h8.34l-1.35 8.735h-6.99V60.12a29.97 29.97 0 0018.15-10.21 30.194 30.194 0 007.17-19.61c0-16.656-13.5-30.18-30-30.18z" fill="#7C7C7C"/></svg></svg>