<svg width="155" height="64" viewBox="0 0 155 64" fill="none" xmlns="http://www.w3.org/2000/svg">
<path d="M0 10.6655H9.14219V53.3368H0V10.6655Z" fill="white"/>
<path d="M16.7221 10.6655H35.6167C44.7589 10.6655 50.5493 16.456 50.5493 24.9902C50.5493 34.7404 43.2356 37.4842 43.2356 37.4842L52.0773 53.3322H42.0174L34.3985 39.3126H25.8643V53.3322H16.7221V10.6655ZM35.3047 30.7807C38.6565 30.7807 41.0951 28.342 41.0951 24.9902C41.0951 21.6385 38.6565 19.1998 35.3047 19.1998H25.8643V30.7807H35.3047Z" fill="white"/>
<path d="M59.6479 10.6655H68.7901V44.7979H88.5978V53.3322H59.6479V10.6655Z" fill="white"/>
<path d="M96.1823 10.6655H105.324V53.3368H96.1823V10.6655Z" fill="white"/>
<path d="M154.275 63.9977H143.694L130.51 41.1617L123.485 53.3299H112.904L125.222 31.9989L112.904 10.6678H123.485L130.51 22.836L135.802 31.9989L154.275 63.9977Z" fill="white"/>
<path d="M154.275 0L138.443 27.4289L133.148 18.266L143.694 0H154.275Z" fill="white"/>
<path d="M59.6479 56.6656H60.4211V63.8899H59.6479V56.6656Z" fill="white"/>
<path d="M63.9862 57.3929H61.7127V56.6656H67.0259V57.3883H64.757V63.8899H63.9816L63.9862 57.3929Z" fill="white"/>
<path d="M76.4228 62.5019C76.0712 62.9606 75.6201 63.3335 75.1035 63.5926C74.5869 63.8517 74.0182 63.9902 73.4404 63.9976C72.804 64.0064 72.1761 63.8517 71.6167 63.5482C71.0574 63.2447 70.5853 62.8027 70.2458 62.2645C69.9062 61.7262 69.7106 61.1098 69.6775 60.4743C69.6445 59.8387 69.7753 59.2054 70.0572 58.6349C70.3392 58.0643 70.7629 57.5758 71.2878 57.216C71.8127 56.8562 72.4212 56.6372 73.055 56.58C73.6888 56.5228 74.3267 56.6293 74.9076 56.8893C75.4884 57.1493 75.9928 57.5541 76.3723 58.065L75.8561 58.5238C75.5551 58.1135 75.1541 57.7871 74.6914 57.5756C74.2286 57.3641 73.7194 57.2745 73.2122 57.3153C72.705 57.3561 72.2167 57.5261 71.7937 57.8089C71.3707 58.0917 71.0271 58.4781 70.7956 58.9312C70.5641 59.3844 70.4524 59.8892 70.4711 60.3977C70.4898 60.9062 70.6383 61.4014 70.9025 61.8363C71.1666 62.2712 71.5377 62.6313 71.9803 62.8823C72.4229 63.1333 72.9224 63.2669 73.4312 63.2704C73.9114 63.2703 74.385 63.1585 74.8147 62.9439C75.2443 62.7293 75.6181 62.4178 75.9066 62.0338L76.4228 62.5019Z" fill="white"/>
<path d="M80.9652 56.5669C81.7002 56.5669 82.4188 56.7849 83.03 57.1933C83.6412 57.6017 84.1175 58.1821 84.3988 58.8612C84.6801 59.5403 84.7537 60.2876 84.6103 61.0085C84.4669 61.7294 84.1129 62.3917 83.5932 62.9114C83.0734 63.4312 82.4112 63.7852 81.6902 63.9286C80.9693 64.072 80.222 63.9984 79.5429 63.7171C78.8638 63.4358 78.2834 62.9594 77.875 62.3482C77.4666 61.7371 77.2487 61.0185 77.2487 60.2835C77.2462 59.7947 77.3407 59.3103 77.5266 58.8583C77.7125 58.4063 77.9862 57.9957 78.3318 57.6501C78.6774 57.3045 79.088 57.0308 79.5401 56.8449C79.9921 56.659 80.4764 56.5645 80.9652 56.5669ZM83.9063 60.2835C83.8981 59.7036 83.7188 59.1391 83.3907 58.6609C83.0626 58.1827 82.6005 57.8121 82.0624 57.5959C81.5243 57.3796 80.9343 57.3272 80.3665 57.4453C79.7987 57.5634 79.2786 57.8467 78.8714 58.2596C78.4642 58.6725 78.1881 59.1966 78.0779 59.766C77.9678 60.3354 78.0284 60.9246 78.2521 61.4596C78.4759 61.9946 78.8528 62.4515 79.3356 62.7729C79.8183 63.0943 80.3853 63.2658 80.9652 63.2658C81.3557 63.2687 81.7428 63.1932 82.1037 63.0438C82.4645 62.8944 82.7917 62.6742 83.0659 62.3961C83.3401 62.118 83.5558 61.7878 83.7001 61.4249C83.8445 61.062 83.9146 60.6739 83.9063 60.2835Z" fill="white"/>
<path d="M86.384 56.6656H87.0539L90.0478 60.5887L93.0302 56.6656H93.7024V63.8899H92.9361V58.0123L90.0478 61.8321L87.1571 58.0123V63.8945H86.384V56.6656Z" fill="white"/>
<path d="M95.8795 56.6656H98.6141C99.2165 56.6656 99.7942 56.9049 100.22 57.3309C100.646 57.7568 100.885 58.3345 100.885 58.9369C100.885 59.5392 100.646 60.1169 100.22 60.5428C99.7942 60.9688 99.2165 61.2081 98.6141 61.2081H96.6526V63.8899H95.8795V56.6656ZM98.6141 60.4854C99.0248 60.4854 99.4187 60.3223 99.7091 60.0319C99.9995 59.7414 100.163 59.3476 100.163 58.9369C100.163 58.5262 99.9995 58.1323 99.7091 57.8419C99.4187 57.5515 99.0248 57.3883 98.6141 57.3883H96.6526V60.4854H98.6141Z" fill="white"/>
<path d="M104.083 56.6656H104.806L107.8 63.8899H106.974L106.148 61.878H102.741L101.915 63.8899H101.09L104.083 56.6656ZM105.838 61.1553L104.444 57.7508L103.051 61.1553H105.838Z" fill="white"/>
<path d="M109.089 56.6656H109.759L114.198 62.4974V56.6656H114.971V63.8899H114.302L109.862 58.0651V63.8945H109.089V56.6656Z" fill="white"/>
<path d="M118.945 61.3664L116.263 56.6656H117.139L119.307 60.5359H119.358L121.526 56.6656H122.402L119.72 61.3618V63.8853H118.945V61.3664Z" fill="white"/>
</svg>
